<svg width="238" height="157" viewBox="0 0 238 157" fill="none" xmlns="http://www.w3.org/2000/svg">
<path d="M118.82 3C78.4595 3 37.0585 26.6489 4.46597 73.9468C3.53565 75.3117 3.02584 76.9252 3.00096 78.5833C2.97607 80.2415 3.43723 81.8699 4.32615 83.2627C29.3687 122.949 70.2155 153.984 118.82 153.984C166.895 153.984 208.581 122.854 233.67 83.0793C234.538 81.7136 235 80.1239 235 78.4999C235 76.8759 234.538 75.2862 233.67 73.9206C208.524 34.6018 166.533 3 118.82 3Z" stroke="#EAEAEA" stroke-width="5" stroke-linecap="round" stroke-linejoin="round"/>
<path d="M119 120.841C142.389 120.841 161.349 101.881 161.349 78.4921C161.349 55.1032 142.389 36.1429 119 36.1429C95.6112 36.1429 76.6508 55.1032 76.6508 78.4921C76.6508 101.881 95.6112 120.841 119 120.841Z" stroke="#EAEAEA" stroke-width="5" stroke-miterlimit="10"/>
</svg>
