<svg width="448" height="448" viewBox="0 0 448 448" fill="none" xmlns="http://www.w3.org/2000/svg">
<path d="M424 448H104C97.6348 448 91.5303 445.471 87.0294 440.971C82.5286 436.47 80 430.365 80 424V96C80 91.7565 81.6857 87.6869 84.6863 84.6863C87.6869 81.6857 91.7565 80 96 80H424C430.365 80 436.47 82.5286 440.971 87.0294C445.471 91.5303 448 97.6348 448 104V424C448 430.365 445.471 436.47 440.971 440.971C436.47 445.471 430.365 448 424 448Z" fill="black"/>
<path d="M80 48H368V24C368 17.6348 365.471 11.5303 360.971 7.02944C356.47 2.52856 350.365 0 344 0H28C20.5739 0 13.452 2.94999 8.20101 8.20101C2.94999 13.452 0 20.5739 0 28V344C0 350.365 2.52856 356.47 7.02944 360.971C11.5303 365.471 17.6348 368 24 368H48V80C48 71.5131 51.3714 63.3737 57.3726 57.3726C63.3737 51.3714 71.5131 48 80 48V48Z" fill="black"/>
</svg>
