<svg width="24" height="21" viewBox="0 0 24 21" fill="none" xmlns="http://www.w3.org/2000/svg">
<path d="M20.4615 1H3.53846C2.13651 1 1 2.15127 1 3.57143V17.2857C1 18.7059 2.13651 19.8571 3.53846 19.8571H20.4615C21.8635 19.8571 23 18.7059 23 17.2857V3.57143C23 2.15127 21.8635 1 20.4615 1Z" stroke="#7C7C7C" stroke-linejoin="round"/>
<path d="M16.4 7.91428C17.2679 7.91428 17.9714 7.21073 17.9714 6.34285C17.9714 5.47498 17.2679 4.77142 16.4 4.77142C15.5321 4.77142 14.8286 5.47498 14.8286 6.34285C14.8286 7.21073 15.5321 7.91428 16.4 7.91428Z" stroke="#7C7C7C" stroke-miterlimit="10"/>
<path d="M10.3077 19.8571L16.8305 13.5306C17.1288 13.2407 17.5281 13.0694 17.9499 13.0504C18.3717 13.0314 18.7856 13.1661 19.1103 13.428L23 16.5743M14.5385 14.9222L9.74394 10.2806C9.43885 9.98477 9.02879 9.8131 8.59756 9.80071C8.16634 9.78831 7.74651 9.93613 7.42389 10.2139L1 15.7536L14.5385 14.9222Z" stroke="#7C7C7C" stroke-linecap="round" stroke-linejoin="round"/>
</svg>
