<svg width="37" height="35" viewBox="0 0 37 35" fill="none" xmlns="http://www.w3.org/2000/svg">
<g filter="url(#filter0_d)">
<path d="M17.5 30C17.0523 29.9994 16.6151 29.863 16.2453 29.6084C10.7669 25.8572 8.39477 23.2852 7.08635 21.6771C4.29804 18.2494 2.96313 14.7302 3.00077 10.9193C3.04469 6.55219 6.51823 3 10.7439 3C13.8166 3 15.9448 4.74586 17.1842 6.19992C17.2235 6.24552 17.272 6.28208 17.3265 6.30714C17.3809 6.3322 17.4401 6.34516 17.5 6.34516C17.5599 6.34516 17.6191 6.3322 17.6735 6.30714C17.728 6.28208 17.7765 6.24552 17.8158 6.19992C19.0552 4.74445 21.1834 3 24.2561 3C28.4818 3 31.9553 6.55219 31.9992 10.92C32.0369 14.7316 30.7006 18.2508 27.9137 21.6778C26.6052 23.2859 24.2331 25.8579 18.7547 29.6091C18.3849 29.8634 17.9477 29.9996 17.5 30Z" fill="#A5FFFA" fill-opacity="0.67"/>
<path d="M3.50075 10.9243C3.54206 6.81601 6.80754 3.5 10.7439 3.5C13.61 3.5 15.6117 5.12585 16.8037 6.52427L16.8053 6.52617C16.8912 6.62594 16.9977 6.70625 17.1175 6.76139C17.2374 6.81654 17.3679 6.84516 17.5 6.84516C17.6321 6.84516 17.7626 6.81654 17.8825 6.76139C18.0024 6.70625 18.1088 6.62594 18.1947 6.52617L18.1965 6.52409C19.3882 5.12459 21.3898 3.5 24.2561 3.5C28.1924 3.5 31.4579 6.81598 31.4993 10.925C31.5355 14.6019 30.2513 18.0107 27.5257 21.3624C26.2498 22.9305 23.9139 25.4705 18.4723 29.1965L18.4714 29.1971C18.1847 29.3942 17.8463 29.4996 17.5002 29.5C17.154 29.4995 16.8155 29.3939 16.5288 29.1965L16.5277 29.1958C11.086 25.4697 8.75011 22.9297 7.47418 21.3615C4.74728 18.0093 3.46444 14.6006 3.50075 10.9243ZM3.50075 10.9243L3.00077 10.9193L3.50075 10.9243Z" stroke="#939393" stroke-opacity="0.14"/>
</g>
<defs>
<filter id="filter0_d" x="0" y="0" width="37" height="35" filterUnits="userSpaceOnUse" color-interpolation-filters="sRGB">
<feFlood flood-opacity="0" result="BackgroundImageFix"/>
<feColorMatrix in="SourceAlpha" type="matrix" values="0 0 0 0 0 0 0 0 0 0 0 0 0 0 0 0 0 0 127 0"/>
<feOffset dx="1" dy="1"/>
<feGaussianBlur stdDeviation="2"/>
<feColorMatrix type="matrix" values="0 0 0 0 0 0 0 0 0 0 0 0 0 0 0 0 0 0 0.09 0"/>
<feBlend mode="normal" in2="BackgroundImageFix" result="effect1_dropShadow"/>
<feBlend mode="normal" in="SourceGraphic" in2="effect1_dropShadow" result="shape"/>
</filter>
</defs>
</svg>
