<svg width="126" height="47" viewBox="0 0 126 47" fill="none" xmlns="http://www.w3.org/2000/svg">
<path d="M3.5625 30V14.625H0.75V13.0938H3.5625V11.3594C3.5625 9.55729 4.05208 8.16146 5.03125 7.17188C6.01042 6.17188 7.39062 5.67188 9.17188 5.67188C10.5677 5.67188 12.0052 5.97917 13.4844 6.59375L13.1719 8.20312C11.901 7.65104 10.6094 7.375 9.29688 7.375C6.72396 7.375 5.4375 8.71354 5.4375 11.3906V13.0938H9.39062V14.625H5.4375V30H3.5625ZM14.5 30H12.625V13.0938H14.5V30ZM24.9375 19.9531L29.5 13.0938H31.7188L25.9844 21.3906L31.9688 30H29.7656L24.9531 22.8438L20.1406 30H17.9375L23.9062 21.3906L18.1719 13.0938H20.375L24.9375 19.9531ZM45.875 8.76562V13.0938H49.375V14.625H45.875V25.8906C45.875 26.8281 46.0417 27.526 46.375 27.9844C46.7188 28.4427 47.2865 28.6719 48.0781 28.6719C48.3906 28.6719 48.8958 28.6198 49.5938 28.5156L49.6719 30.0469C49.1823 30.224 48.5156 30.3125 47.6719 30.3125C46.3906 30.3125 45.4583 29.9427 44.875 29.2031C44.2917 28.4531 44 27.3542 44 25.9062V14.625H40.8906V13.0938H44V8.76562H45.875ZM51.9062 21.2969C51.9062 19.6719 52.2188 18.2083 52.8438 16.9062C53.4792 15.6042 54.3698 14.5938 55.5156 13.875C56.6719 13.1458 57.9792 12.7812 59.4375 12.7812C61.6875 12.7812 63.5104 13.5729 64.9062 15.1562C66.3021 16.7292 67 18.8177 67 21.4219V21.8125C67 23.4479 66.6823 24.9219 66.0469 26.2344C65.4219 27.5365 64.5365 28.5417 63.3906 29.25C62.2448 29.9583 60.9375 30.3125 59.4688 30.3125C57.2292 30.3125 55.4062 29.526 54 27.9531C52.6042 26.3698 51.9062 24.276 51.9062 21.6719V21.2969ZM53.7812 21.8125C53.7812 23.8333 54.3021 25.4948 55.3438 26.7969C56.3958 28.0885 57.7708 28.7344 59.4688 28.7344C61.1562 28.7344 62.5208 28.0885 63.5625 26.7969C64.6146 25.4948 65.1406 23.7812 65.1406 21.6562V21.2969C65.1406 20.0052 64.901 18.8229 64.4219 17.75C63.9427 16.6771 63.2708 15.849 62.4062 15.2656C61.5417 14.6719 60.5521 14.375 59.4375 14.375C57.7708 14.375 56.4115 15.0312 55.3594 16.3438C54.3073 17.6458 53.7812 19.3542 53.7812 21.4688V21.8125ZM80.3594 13.0938L80.4219 15.8438C81.0469 14.8229 81.8281 14.0573 82.7656 13.5469C83.7031 13.0365 84.7448 12.7812 85.8906 12.7812C88.5573 12.7812 90.25 13.875 90.9688 16.0625C91.5729 15.0104 92.3802 14.2031 93.3906 13.6406C94.401 13.0677 95.5156 12.7812 96.7344 12.7812C100.359 12.7812 102.208 14.7604 102.281 18.7188V30H100.406V18.8594C100.396 17.349 100.068 16.2292 99.4219 15.5C98.7865 14.7708 97.7448 14.4062 96.2969 14.4062C94.9531 14.4271 93.8177 14.8646 92.8906 15.7188C91.9635 16.5625 91.4479 17.5938 91.3438 18.8125V30H89.4688V18.7188C89.4583 17.2708 89.1146 16.1927 88.4375 15.4844C87.7708 14.7656 86.7396 14.4062 85.3438 14.4062C84.1667 14.4062 83.1562 14.7448 82.3125 15.4219C81.4688 16.0885 80.8438 17.0833 80.4375 18.4062V30H78.5625V13.0938H80.3594ZM113.578 30.3125C112.141 30.3125 110.839 29.9583 109.672 29.25C108.516 28.5417 107.615 27.5573 106.969 26.2969C106.323 25.026 106 23.6042 106 22.0312V21.3594C106 19.7344 106.312 18.2708 106.938 16.9688C107.573 15.6667 108.453 14.6458 109.578 13.9062C110.703 13.1562 111.922 12.7812 113.234 12.7812C115.286 12.7812 116.911 13.4844 118.109 14.8906C119.318 16.2865 119.922 18.1979 119.922 20.625V21.6719H107.859V22.0312C107.859 23.9479 108.406 25.5469 109.5 26.8281C110.604 28.099 111.99 28.7344 113.656 28.7344C114.656 28.7344 115.536 28.5521 116.297 28.1875C117.068 27.8229 117.766 27.2396 118.391 26.4375L119.562 27.3281C118.188 29.3177 116.193 30.3125 113.578 30.3125ZM113.234 14.375C111.828 14.375 110.641 14.8906 109.672 15.9219C108.714 16.9531 108.13 18.3385 107.922 20.0781H118.062V19.875C118.01 18.25 117.547 16.9271 116.672 15.9062C115.797 14.8854 114.651 14.375 113.234 14.375Z" fill="#212121"/>
<path d="M4.19971 37.0186L4.23291 38.4795C4.56494 37.9372 4.97998 37.5304 5.47803 37.2593C5.97607 36.9881 6.52946 36.8525 7.13818 36.8525C8.55485 36.8525 9.4541 37.4336 9.83594 38.5957C10.1569 38.0368 10.5858 37.6079 11.1226 37.3091C11.6593 37.0047 12.2515 36.8525 12.8989 36.8525C14.8247 36.8525 15.807 37.904 15.8457 40.0068V46H14.8496V40.0815C14.8441 39.2791 14.6698 38.6842 14.3267 38.2969C13.9891 37.9095 13.4357 37.7158 12.6665 37.7158C11.9526 37.7269 11.3494 37.9593 10.8569 38.4131C10.3644 38.8613 10.0905 39.4092 10.0352 40.0566V46H9.03906V40.0068C9.03353 39.2376 8.85091 38.6649 8.49121 38.2886C8.13704 37.9067 7.58919 37.7158 6.84766 37.7158C6.22233 37.7158 5.68555 37.8957 5.2373 38.2554C4.78906 38.6095 4.45703 39.138 4.24121 39.8408V46H3.24512V37.0186H4.19971ZM17.8213 41.3765C17.8213 40.5132 17.9873 39.7357 18.3193 39.0439C18.6569 38.3522 19.13 37.8154 19.7388 37.4336C20.353 37.0462 21.0475 36.8525 21.8223 36.8525C23.0176 36.8525 23.986 37.2731 24.7275 38.1143C25.4691 38.9499 25.8398 40.0594 25.8398 41.4429V41.6504C25.8398 42.5192 25.6711 43.3022 25.3335 43.9995C25.0015 44.6912 24.5311 45.2253 23.9224 45.6016C23.3136 45.9779 22.6191 46.166 21.8389 46.166C20.6491 46.166 19.6807 45.7482 18.9336 44.9126C18.1921 44.0715 17.8213 42.9591 17.8213 41.5757V41.3765ZM18.8174 41.6504C18.8174 42.724 19.0941 43.6066 19.6475 44.2983C20.2064 44.9845 20.9368 45.3276 21.8389 45.3276C22.7354 45.3276 23.4603 44.9845 24.0137 44.2983C24.5726 43.6066 24.8521 42.6963 24.8521 41.5674V41.3765C24.8521 40.6903 24.7248 40.0622 24.4702 39.4922C24.2157 38.9222 23.8587 38.4823 23.3994 38.1724C22.9401 37.8569 22.4144 37.6992 21.8223 37.6992C20.9368 37.6992 20.2147 38.0479 19.6558 38.7451C19.0968 39.4368 18.8174 40.3444 18.8174 41.4678V41.6504ZM35.1284 41.6006C35.1284 43.0007 34.8185 44.113 34.1987 44.9375C33.5789 45.7565 32.7461 46.166 31.7002 46.166C30.4495 46.166 29.5033 45.7012 28.8613 44.7715L28.8198 46H27.8901V33.25H28.8779V38.3218C29.5088 37.3423 30.444 36.8525 31.6836 36.8525C32.7461 36.8525 33.5845 37.2593 34.1987 38.0728C34.8185 38.8807 35.1284 40.0068 35.1284 41.4512V41.6006ZM34.1323 41.4263C34.1323 40.242 33.9027 39.3289 33.4434 38.687C32.984 38.0396 32.3366 37.7158 31.501 37.7158C30.8646 37.7158 30.325 37.8735 29.8823 38.189C29.4396 38.4989 29.1048 38.9554 28.8779 39.5586V43.6094C29.376 44.7383 30.2559 45.3027 31.5176 45.3027C32.3366 45.3027 32.9757 44.979 33.4351 44.3315C33.8999 43.6841 34.1323 42.7157 34.1323 41.4263ZM38.4404 46H37.4443V37.0186H38.4404V46ZM37.27 34.4204C37.27 34.2323 37.3309 34.0745 37.4526 33.9473C37.5744 33.8145 37.7404 33.748 37.9507 33.748C38.161 33.748 38.327 33.8145 38.4487 33.9473C38.576 34.0745 38.6396 34.2323 38.6396 34.4204C38.6396 34.6086 38.576 34.7663 38.4487 34.8936C38.327 35.0208 38.161 35.0845 37.9507 35.0845C37.7404 35.0845 37.5744 35.0208 37.4526 34.8936C37.3309 34.7663 37.27 34.6086 37.27 34.4204ZM42.2588 46H41.2627V33.25H42.2588V46ZM48.4429 46.166C47.6792 46.166 46.9875 45.9779 46.3677 45.6016C45.7534 45.2253 45.2747 44.7023 44.9316 44.0327C44.5885 43.3576 44.417 42.6022 44.417 41.7666V41.4097C44.417 40.5464 44.583 39.7689 44.915 39.0771C45.2526 38.3854 45.7202 37.8431 46.3179 37.4502C46.9155 37.0518 47.563 36.8525 48.2603 36.8525C49.3504 36.8525 50.2137 37.2261 50.8501 37.9731C51.492 38.7147 51.813 39.7301 51.813 41.0195V41.5757H45.4048V41.7666C45.4048 42.7848 45.6953 43.6343 46.2764 44.3149C46.863 44.9901 47.599 45.3276 48.4844 45.3276C49.0156 45.3276 49.4832 45.2308 49.8872 45.0371C50.2967 44.8434 50.6675 44.5335 50.9995 44.1074L51.6221 44.5806C50.8916 45.6375 49.8319 46.166 48.4429 46.166ZM48.2603 37.6992C47.5132 37.6992 46.8823 37.9731 46.3677 38.521C45.8586 39.0688 45.5487 39.8049 45.438 40.729H50.8252V40.6211C50.7975 39.7578 50.5513 39.055 50.0864 38.5127C49.6216 37.9704 49.0129 37.6992 48.2603 37.6992ZM62.0312 37.8652C61.821 37.8265 61.5968 37.8071 61.3589 37.8071C60.7391 37.8071 60.2134 37.9814 59.7817 38.3301C59.3556 38.6732 59.0513 39.174 58.8687 39.8325V46H57.8809V37.0186H58.8521L58.8687 38.4463C59.3944 37.3838 60.2383 36.8525 61.4004 36.8525C61.6771 36.8525 61.8957 36.8885 62.0562 36.9604L62.0312 37.8652ZM66.9204 46.166C66.1567 46.166 65.465 45.9779 64.8452 45.6016C64.231 45.2253 63.7523 44.7023 63.4092 44.0327C63.0661 43.3576 62.8945 42.6022 62.8945 41.7666V41.4097C62.8945 40.5464 63.0605 39.7689 63.3926 39.0771C63.7301 38.3854 64.1978 37.8431 64.7954 37.4502C65.3931 37.0518 66.0405 36.8525 66.7378 36.8525C67.828 36.8525 68.6912 37.2261 69.3276 37.9731C69.9696 38.7147 70.2905 39.7301 70.2905 41.0195V41.5757H63.8823V41.7666C63.8823 42.7848 64.1729 43.6343 64.7539 44.3149C65.3405 44.9901 66.0765 45.3276 66.9619 45.3276C67.4932 45.3276 67.9608 45.2308 68.3647 45.0371C68.7743 44.8434 69.145 44.5335 69.4771 44.1074L70.0996 44.5806C69.3691 45.6375 68.3094 46.166 66.9204 46.166ZM66.7378 37.6992C65.9907 37.6992 65.3599 37.9731 64.8452 38.521C64.3361 39.0688 64.0262 39.8049 63.9155 40.729H69.3027V40.6211C69.2751 39.7578 69.0288 39.055 68.564 38.5127C68.0991 37.9704 67.4904 37.6992 66.7378 37.6992ZM77.6035 43.7173C77.6035 43.2248 77.4043 42.8291 77.0059 42.5303C76.613 42.2314 76.0181 41.999 75.2212 41.833C74.4243 41.6615 73.8045 41.4678 73.3618 41.252C72.9246 41.0306 72.5981 40.7622 72.3823 40.4468C72.172 40.1313 72.0669 39.7495 72.0669 39.3013C72.0669 38.5929 72.363 38.0091 72.9551 37.5498C73.5472 37.085 74.3053 36.8525 75.2295 36.8525C76.2311 36.8525 77.0335 37.1016 77.6367 37.5996C78.2454 38.0921 78.5498 38.7368 78.5498 39.5337H77.5537C77.5537 39.008 77.3324 38.5708 76.8896 38.2222C76.4525 37.8735 75.8991 37.6992 75.2295 37.6992C74.5765 37.6992 74.0508 37.8459 73.6523 38.1392C73.2594 38.4269 73.063 38.8032 73.063 39.2681C73.063 39.7163 73.2262 40.0649 73.5527 40.314C73.8848 40.5575 74.4852 40.7816 75.354 40.9863C76.2284 41.1911 76.8813 41.4097 77.313 41.6421C77.7502 41.8745 78.0739 42.154 78.2842 42.4805C78.4945 42.807 78.5996 43.2026 78.5996 43.6675C78.5996 44.4256 78.2925 45.0316 77.6782 45.4854C77.0695 45.9391 76.2726 46.166 75.2876 46.166C74.2417 46.166 73.3923 45.9142 72.7393 45.4106C72.0918 44.9015 71.7681 44.2596 71.7681 43.4849H72.7642C72.8029 44.0659 73.0464 44.5197 73.4946 44.8462C73.9484 45.1672 74.5461 45.3276 75.2876 45.3276C75.9793 45.3276 76.5382 45.1755 76.9644 44.8711C77.3905 44.5667 77.6035 44.1821 77.6035 43.7173ZM84.3188 46.166C83.5552 46.166 82.8634 45.9779 82.2437 45.6016C81.6294 45.2253 81.1507 44.7023 80.8076 44.0327C80.4645 43.3576 80.293 42.6022 80.293 41.7666V41.4097C80.293 40.5464 80.459 39.7689 80.791 39.0771C81.1286 38.3854 81.5962 37.8431 82.1938 37.4502C82.7915 37.0518 83.439 36.8525 84.1362 36.8525C85.2264 36.8525 86.0897 37.2261 86.7261 37.9731C87.368 38.7147 87.689 39.7301 87.689 41.0195V41.5757H81.2808V41.7666C81.2808 42.7848 81.5713 43.6343 82.1523 44.3149C82.7389 44.9901 83.4749 45.3276 84.3604 45.3276C84.8916 45.3276 85.3592 45.2308 85.7632 45.0371C86.1727 44.8434 86.5435 44.5335 86.8755 44.1074L87.498 44.5806C86.7676 45.6375 85.7078 46.166 84.3188 46.166ZM84.1362 37.6992C83.3892 37.6992 82.7583 37.9731 82.2437 38.521C81.7345 39.0688 81.4246 39.8049 81.314 40.729H86.7012V40.6211C86.6735 39.7578 86.4272 39.055 85.9624 38.5127C85.4976 37.9704 84.8888 37.6992 84.1362 37.6992ZM95.2925 46C95.1929 45.7178 95.1292 45.3 95.1016 44.7466C94.7529 45.2004 94.3075 45.5518 93.7651 45.8008C93.2284 46.0443 92.6584 46.166 92.0552 46.166C91.1919 46.166 90.4919 45.9253 89.9551 45.4438C89.4238 44.9624 89.1582 44.3537 89.1582 43.6177C89.1582 42.7433 89.5207 42.0516 90.2456 41.5425C90.9761 41.0334 91.9915 40.7788 93.292 40.7788H95.0933V39.7578C95.0933 39.1159 94.894 38.6123 94.4956 38.2471C94.1027 37.8763 93.5272 37.6909 92.769 37.6909C92.0773 37.6909 91.5046 37.868 91.0508 38.2222C90.597 38.5763 90.3701 39.0024 90.3701 39.5005L89.374 39.4922C89.374 38.7783 89.7061 38.1613 90.3701 37.6411C91.0342 37.1154 91.8504 36.8525 92.8188 36.8525C93.8205 36.8525 94.609 37.1043 95.1846 37.6079C95.7656 38.106 96.0645 38.8032 96.0811 39.6997V43.9497C96.0811 44.8185 96.1724 45.4688 96.355 45.9004V46H95.2925ZM92.1714 45.2861C92.8354 45.2861 93.4276 45.1257 93.9478 44.8047C94.4735 44.4837 94.8553 44.0549 95.0933 43.5181V41.5425H93.3169C92.3263 41.5535 91.5516 41.7362 90.9927 42.0903C90.4338 42.439 90.1543 42.9204 90.1543 43.5347C90.1543 44.0382 90.3397 44.4561 90.7104 44.7881C91.0868 45.1201 91.5737 45.2861 92.1714 45.2861ZM102.888 37.8652C102.677 37.8265 102.453 37.8071 102.215 37.8071C101.596 37.8071 101.07 37.9814 100.638 38.3301C100.212 38.6732 99.9077 39.174 99.7251 39.8325V46H98.7373V37.0186H99.7085L99.7251 38.4463C100.251 37.3838 101.095 36.8525 102.257 36.8525C102.534 36.8525 102.752 36.8885 102.913 36.9604L102.888 37.8652ZM107.619 45.3276C108.311 45.3276 108.889 45.134 109.354 44.7466C109.824 44.3537 110.079 43.8473 110.118 43.2275H111.072C111.045 43.7754 110.873 44.2762 110.558 44.73C110.242 45.1782 109.822 45.5296 109.296 45.7842C108.776 46.0387 108.217 46.166 107.619 46.166C106.44 46.166 105.505 45.7565 104.813 44.9375C104.127 44.1185 103.784 43.0173 103.784 41.6338V41.335C103.784 40.4495 103.939 39.6665 104.249 38.9858C104.559 38.3052 105.002 37.7795 105.577 37.4087C106.158 37.0379 106.836 36.8525 107.611 36.8525C108.596 36.8525 109.407 37.1458 110.043 37.7324C110.685 38.319 111.028 39.091 111.072 40.0483H110.118C110.073 39.3455 109.819 38.7783 109.354 38.3467C108.895 37.915 108.314 37.6992 107.611 37.6992C106.714 37.6992 106.017 38.0229 105.519 38.6704C105.027 39.3179 104.78 40.2254 104.78 41.3931V41.6836C104.78 42.8291 105.027 43.7228 105.519 44.3647C106.017 45.0067 106.717 45.3276 107.619 45.3276ZM114.052 38.5376C114.379 38.0008 114.797 37.5858 115.306 37.2925C115.815 36.9992 116.371 36.8525 116.974 36.8525C117.937 36.8525 118.654 37.1237 119.124 37.666C119.594 38.2083 119.832 39.0218 119.838 40.1064V46H118.85V40.0981C118.845 39.2957 118.673 38.6981 118.335 38.3052C118.003 37.9123 117.469 37.7158 116.733 37.7158C116.119 37.7158 115.574 37.9095 115.098 38.2969C114.628 38.6787 114.279 39.1961 114.052 39.8491V46H113.064V33.25H114.052V38.5376Z" fill="#565656"/>
</svg>
