<svg width="17" height="22" viewBox="0 0 17 22" fill="none" xmlns="http://www.w3.org/2000/svg">
<path d="M12.5385 4.84615L8.69231 1M8.69231 1L4.84615 4.84615M8.69231 1V14.125M12.5385 7.92308H14.4615C14.9716 7.92308 15.4607 8.12569 15.8214 8.48633C16.182 8.84698 16.3846 9.33612 16.3846 9.84615V19.0769C16.3846 19.587 16.182 20.0761 15.8214 20.4367C15.4607 20.7974 14.9716 21 14.4615 21H2.92308C2.41305 21 1.9239 20.7974 1.56326 20.4367C1.20261 20.0761 1 19.587 1 19.0769V9.84615C1 9.33612 1.20261 8.84698 1.56326 8.48633C1.9239 8.12569 2.41305 7.92308 2.92308 7.92308H4.84615H12.5385Z" stroke="#5B5B5B" stroke-linecap="round" stroke-linejoin="round"/>
</svg>
